<svg width="90" height="37" viewBox="0 0 90 37" fill="none" xmlns="http://www.w3.org/2000/svg">
<path d="M61.96 0.539993H0.309998V17.31H61.96V0.539993Z" fill="#FF0033"/>
<path d="M88.69 19.28H0.309998V36.05H88.69V19.28Z" fill="#FF0033"/>
<path d="M4.08 12.93V2.69H10.91V3.99H5.63V7.07H10.65V8.37H5.63V12.93H4.08Z" fill="white"/>
<path d="M11.87 9.39C11.87 7.14 13.33 5.62 15.41 5.62C17.49 5.62 18.95 7.14 18.95 9.39C18.95 11.64 17.47 13.17 15.41 13.17C13.35 13.17 11.87 11.69 11.87 9.39ZM17.46 9.39C17.46 7.78 16.64 6.77 15.41 6.77C14.18 6.77 13.36 7.78 13.36 9.39C13.36 11 14.15 12.03 15.41 12.03C16.67 12.03 17.46 11 17.46 9.39Z" fill="white"/>
<path d="M20.54 12.93V5.85H21.99V6.25C21.99 6.53 21.99 6.79999 21.98 7.06999C22.33 6.26999 23.06 5.62 24.14 5.62C24.24 5.62 24.36 5.62 24.48 5.64V7.06999C24.38 7.03999 24.24 7.02 24.04 7.02C22.78 7.02 21.99 7.70999 21.99 9.27999V12.94H20.54V12.93Z" fill="white"/>
<path d="M25.1 9.36C25.1 7.17 26.56 5.61 28.54 5.61C30.68 5.61 31.88 7.1 31.88 9.39V9.7H26.58C26.61 11.13 27.46 12.03 28.63 12.03C29.45 12.03 30.19 11.66 30.36 10.7H31.82C31.67 12.03 30.59 13.17 28.61 13.17C26.49 13.17 25.1 11.82 25.1 9.37M30.34 8.66C30.34 7.5 29.67 6.73 28.54 6.73C27.41 6.73 26.7 7.56 26.59 8.66H30.34Z" fill="white"/>
<path d="M33.5 12.93V5.85H34.95V6.27C34.95 6.45 34.95 6.62 34.94 6.83C35.3 6.17 36.1 5.61 37.1 5.61C38.71 5.61 39.68 6.66 39.68 8.45V12.93H38.23V8.66C38.23 7.43 37.76 6.77 36.75 6.77C35.65 6.77 34.95 7.63 34.95 8.7V12.93H33.5Z" fill="white"/>
<path d="M41.07 10.56H42.52C42.57 11.47 43.16 12.05 44.23 12.05C45.14 12.05 45.74 11.64 45.74 10.98C45.74 10.45 45.34 10.15 44.52 9.99L43.54 9.8C42.15 9.54 41.32 8.85 41.32 7.72C41.32 6.51 42.48 5.61 44.13 5.61C45.9 5.61 47 6.5 47.07 7.95H45.62C45.53 7.16 44.96 6.72 44.07 6.72C43.29 6.72 42.77 7.09 42.77 7.64C42.77 8.16 43.13 8.41 43.96 8.58L44.97 8.77C46.3 9.02 47.18 9.66 47.18 10.86C47.18 12.15 46.05 13.15 44.24 13.15C42.29 13.15 41.15 12.11 41.08 10.55" fill="white"/>
<path d="M48.69 2.97H50.3V4.61H48.69V2.97ZM50.22 12.93H48.77V5.85H50.22V12.93Z" fill="white"/>
<path d="M51.81 9.38C51.81 7.1 53.39 5.62 55.41 5.62C57.24 5.62 58.46 6.72 58.6 8.34H57.11C57.02 7.46 56.44 6.77 55.4 6.77C54.17 6.77 53.31 7.83 53.31 9.39C53.31 10.95 54.14 12.03 55.4 12.03C56.45 12.03 57.1 11.39 57.2 10.44H58.66C58.49 12.08 57.36 13.17 55.35 13.17C53.34 13.17 51.81 11.84 51.81 9.38Z" fill="white"/>
<path d="M12.01 31.68L10.88 28.72H6.37L5.26 31.68H3.61L7.75 21.44H9.58L13.74 31.68H12.01ZM6.87 27.42H10.4L8.97 23.66C8.85 23.34 8.75 23.04 8.65 22.74C8.54 23.05 8.43 23.35 8.3 23.66L6.88 27.42H6.87Z" fill="white"/>
<path d="M14.77 31.68V24.6H16.22V25C16.22 25.27 16.22 25.55 16.21 25.82C16.56 25.01 17.29 24.37 18.37 24.37C18.47 24.37 18.59 24.37 18.71 24.39V25.82C18.61 25.79 18.48 25.77 18.27 25.77C17.01 25.77 16.22 26.46 16.22 28.03V31.69H14.77V31.68Z" fill="white"/>
<path d="M19.33 28.12C19.33 25.84 20.91 24.36 22.93 24.36C24.76 24.36 25.97 25.46 26.12 27.08H24.63C24.55 26.2 23.96 25.51 22.92 25.51C21.69 25.51 20.83 26.56 20.83 28.13C20.83 29.7 21.66 30.77 22.92 30.77C23.97 30.77 24.62 30.13 24.72 29.18H26.18C26 30.82 24.88 31.91 22.87 31.91C20.86 31.91 19.33 30.58 19.33 28.12Z" fill="white"/>
<path d="M27.68 31.68V21.44H29.13V24.94C29.13 25.14 29.13 25.35 29.12 25.58C29.5 24.88 30.28 24.37 31.28 24.37C32.89 24.37 33.86 25.42 33.86 27.21V31.69H32.41V27.42C32.41 26.19 31.93 25.53 30.9 25.53C29.82 25.53 29.13 26.39 29.13 27.46V31.69H27.68V31.68Z" fill="white"/>
<path d="M35.72 21.71H37.33V23.35H35.72V21.71ZM37.25 31.68H35.8V24.6H37.25V31.68Z" fill="white"/>
<path d="M39.9 29.59V25.77H38.47V24.6H39.9V22.17H41.36V24.6H42.93V25.77H41.36V29.41C41.36 30.2 41.73 30.54 42.4 30.54C42.57 30.54 42.73 30.53 42.93 30.5V31.67C42.71 31.73 42.39 31.79 42.02 31.79C40.79 31.79 39.9 31.18 39.9 29.6" fill="white"/>
<path d="M43.86 28.11C43.86 25.92 45.32 24.37 47.3 24.37C49.44 24.37 50.64 25.86 50.64 28.14V28.45H45.34C45.37 29.88 46.22 30.78 47.39 30.78C48.21 30.78 48.96 30.41 49.11 29.45H50.57C50.42 30.78 49.34 31.92 47.37 31.92C45.25 31.92 43.86 30.57 43.86 28.12M49.1 27.4C49.1 26.24 48.42 25.47 47.3 25.47C46.18 25.47 45.45 26.3 45.35 27.4H49.1Z" fill="white"/>
<path d="M51.82 28.12C51.82 25.84 53.4 24.36 55.42 24.36C57.25 24.36 58.47 25.46 58.61 27.08H57.12C57.03 26.2 56.44 25.51 55.41 25.51C54.18 25.51 53.32 26.56 53.32 28.13C53.32 29.7 54.15 30.77 55.41 30.77C56.46 30.77 57.1 30.13 57.21 29.18H58.67C58.49 30.82 57.36 31.91 55.36 31.91C53.36 31.91 51.82 30.58 51.82 28.12Z" fill="white"/>
<path d="M60.74 29.59V25.77H59.31V24.6H60.74V22.17H62.2V24.6H63.77V25.77H62.2V29.41C62.2 30.2 62.57 30.54 63.24 30.54C63.41 30.54 63.57 30.53 63.77 30.5V31.67C63.55 31.73 63.23 31.79 62.86 31.79C61.64 31.79 60.74 31.18 60.74 29.6" fill="white"/>
<path d="M65.13 29.1V24.59H66.6V28.82C66.6 30.03 67.04 30.75 68.09 30.75C69.14 30.75 69.8 29.96 69.8 28.61V24.59H71.23V31.67H69.81V31.29C69.81 31.1 69.81 30.88 69.83 30.69C69.49 31.42 68.72 31.9 67.68 31.9C66.11 31.9 65.13 30.91 65.13 29.09" fill="white"/>
<path d="M73.28 31.68V24.6H74.73V25C74.73 25.27 74.73 25.55 74.71 25.82C75.06 25.01 75.79 24.37 76.88 24.37C76.98 24.37 77.1 24.37 77.22 24.39V25.82C77.12 25.79 76.99 25.77 76.78 25.77C75.52 25.77 74.73 26.46 74.73 28.03V31.69H73.28V31.68Z" fill="white"/>
<path d="M77.84 28.11C77.84 25.92 79.3 24.37 81.28 24.37C83.42 24.37 84.62 25.86 84.62 28.14V28.45H79.32C79.35 29.88 80.2 30.78 81.37 30.78C82.19 30.78 82.93 30.41 83.09 29.45H84.56C84.41 30.78 83.33 31.92 81.35 31.92C79.23 31.92 77.84 30.57 77.84 28.12M83.08 27.4C83.08 26.24 82.41 25.47 81.28 25.47C80.15 25.47 79.44 26.3 79.34 27.4H83.09H83.08Z" fill="white"/>
</svg>
